<svg xmlns="http://www.w3.org/2000/svg" viewBox="0 0 1024 1024">
  <defs>
    <radialGradient id="bg" cx="34%" cy="22%" r="88%">
      <stop offset="0" stop-color="#2B3445"/>
      <stop offset="0.48" stop-color="#101722"/>
      <stop offset="1" stop-color="#05070B"/>
    </radialGradient>
    <linearGradient id="rim" x1="238" y1="210" x2="790" y2="834" gradientUnits="userSpaceOnUse">
      <stop offset="0" stop-color="#F4F7FF"/>
      <stop offset="0.42" stop-color="#AFC3E8"/>
      <stop offset="1" stop-color="#3A465D"/>
    </linearGradient>
    <linearGradient id="glass" x1="320" y1="270" x2="748" y2="744" gradientUnits="userSpaceOnUse">
      <stop offset="0" stop-color="#68E8FF"/>
      <stop offset="0.5" stop-color="#8A7CFF"/>
      <stop offset="1" stop-color="#F46EB7"/>
    </linearGradient>
    <radialGradient id="core" cx="38%" cy="30%" r="70%">
      <stop offset="0" stop-color="#FFFFFF" stop-opacity="0.92"/>
      <stop offset="0.24" stop-color="#C8F6FF" stop-opacity="0.76"/>
      <stop offset="0.58" stop-color="#5E6DFF" stop-opacity="0.42"/>
      <stop offset="1" stop-color="#101521" stop-opacity="0.96"/>
    </radialGradient>
    <filter id="shadow" x="-20%" y="-20%" width="140%" height="150%">
      <feDropShadow dx="0" dy="34" stdDeviation="38" flood-color="#000000" flood-opacity="0.44"/>
    </filter>
  </defs>

  <rect width="1024" height="1024" rx="226" fill="url(#bg)"/>
  <path d="M203 321c0-65 53-118 118-118h382c65 0 118 53 118 118v382c0 65-53 118-118 118H321c-65 0-118-53-118-118V321z" fill="none" stroke="#FFFFFF" stroke-opacity="0.08" stroke-width="8"/>

  <g filter="url(#shadow)">
    <circle cx="512" cy="512" r="322" fill="#070A10"/>
    <circle cx="512" cy="512" r="292" fill="none" stroke="url(#rim)" stroke-width="52"/>
    <circle cx="512" cy="512" r="224" fill="url(#glass)"/>
    <circle cx="512" cy="512" r="206" fill="url(#core)"/>
    <path d="M354 418c78-116 237-151 356-78" fill="none" stroke="#FFFFFF" stroke-opacity="0.64" stroke-width="28" stroke-linecap="round"/>
    <path d="M350 643c74 83 201 112 309 55" fill="none" stroke="#FFFFFF" stroke-opacity="0.16" stroke-width="30" stroke-linecap="round"/>
  </g>

  <path d="M762 226h54c31 0 56 25 56 56v54" fill="none" stroke="#E9F2FF" stroke-opacity="0.58" stroke-width="28" stroke-linecap="round"/>
  <path d="M262 226h-54c-31 0-56 25-56 56v54" fill="none" stroke="#E9F2FF" stroke-opacity="0.42" stroke-width="28" stroke-linecap="round"/>
  <path d="M762 798h54c31 0 56-25 56-56v-54" fill="none" stroke="#E9F2FF" stroke-opacity="0.22" stroke-width="28" stroke-linecap="round"/>
  <path d="M262 798h-54c-31 0-56-25-56-56v-54" fill="none" stroke="#E9F2FF" stroke-opacity="0.22" stroke-width="28" stroke-linecap="round"/>

  <path d="M681 284l20 51 51 20-51 20-20 51-20-51-51-20 51-20 20-51z" fill="#FFFFFF" fill-opacity="0.88"/>
  <circle cx="346" cy="315" r="15" fill="#FFFFFF" fill-opacity="0.52"/>
  <circle cx="735" cy="690" r="12" fill="#FFFFFF" fill-opacity="0.28"/>
</svg>
